<?xml version="1.0" encoding="UTF-8" standalone="no"?>
<!DOCTYPE svg PUBLIC "-//W3C//DTD SVG 1.0//EN" "http://www.w3.org/TR/2001/PR-SVG-20010719/DTD/svg10.dtd">
<svg width="2cm" height="2cm" viewBox="-1 -1 40 34" xmlns="http://www.w3.org/2000/svg" xmlns:xlink="http://www.w3.org/1999/xlink">
  <g>
    <polygon style="fill: #000000" points="0,0 40,0 40,34 20,34 20,30 36,30 36,8 26,8 26,4 14,4 14,8 4,8 4,30 20,30 20,34 0,34 "/>
    <polygon style="fill: none; fill-opacity:0; stroke-width: 2.35099e-37; stroke: #000000" points="0,0 40,0 40,34 20,34 20,30 36,30 36,8 26,8 26,4 14,4 14,8 4,8 4,30 20,30 20,34 0,34 "/>
  </g>
  <g>
    <rect style="fill: #00ff00" x="4" y="2" width="8" height="4"/>
    <rect style="fill: none; fill-opacity:0; stroke-width: 2.35099e-37; stroke: #000000" x="4" y="2" width="8" height="4"/>
  </g>
  <g>
    <rect style="fill: #ffa500" x="28" y="2" width="8" height="4"/>
    <rect style="fill: none; fill-opacity:0; stroke-width: 2.35099e-37; stroke: #000000" x="28" y="2" width="8" height="4"/>
  </g>
  <line style="fill: none; fill-opacity:0; stroke-width: 2; stroke: #6f6f6f" x1="18.1875" y1="24" x2="18.1875" y2="30"/>
  <line style="fill: none; fill-opacity:0; stroke-width: 2; stroke: #6f6f6f" x1="21.8125" y1="24" x2="21.8125" y2="30"/>
  <line style="fill: none; fill-opacity:0; stroke-width: 2; stroke: #6f6f6f" x1="14.5938" y1="24" x2="14.5938" y2="30"/>
  <line style="fill: none; fill-opacity:0; stroke-width: 2; stroke: #6f6f6f" x1="25.4063" y1="24" x2="25.4063" y2="30"/>
  <line style="fill: none; fill-opacity:0; stroke-width: 2; stroke: #6f6f6f" x1="11" y1="24" x2="11" y2="30"/>
  <line style="fill: none; fill-opacity:0; stroke-width: 2; stroke: #6f6f6f" x1="29.0313" y1="24" x2="29.0313" y2="30"/>
  <line style="fill: none; fill-opacity:0; stroke-width: 2; stroke: #6f6f6f" x1="32.5938" y1="24" x2="32.5938" y2="30"/>
  <line style="fill: none; fill-opacity:0; stroke-width: 2; stroke: #6f6f6f" x1="7.34375" y1="24" x2="7.34375" y2="30"/>
</svg>
